<?xml version="1.0" standalone="no"?>
<!DOCTYPE svg PUBLIC "-//W3C//DTD SVG 20010904//EN"
 "http://www.w3.org/TR/2001/REC-SVG-20010904/DTD/svg10.dtd">
<svg version="1.0" xmlns="http://www.w3.org/2000/svg"
 width="500.000000pt" height="500.000000pt" viewBox="0 0 500.000000 500.000000"
 preserveAspectRatio="xMidYMid meet">
<metadata>
Created by potrace 1.11, written by Peter Selinger 2001-2013
</metadata>
<g transform="translate(0.000000,500.000000) scale(0.100000,-0.100000)"
fill="#000000" stroke="none">
<path d="M0 2500 l0 -2500 2500 0 2500 0 0 2500 0 2500 -2500 0 -2500 0 0
-2500z m2860 1980 c242 -22 467 -84 667 -185 144 -72 215 -123 321 -226 205
-201 312 -482 312 -817 0 -640 -388 -1060 -1112 -1204 -91 -18 -152 -21 -510
-25 l-408 -5 0 -831 c0 -759 -1 -832 -17 -849 -15 -17 -40 -18 -380 -18 -350
0 -364 1 -383 20 -20 20 -20 33 -20 1219 l0 1200 22 15 c19 14 65 16 305 16
156 0 283 2 283 4 0 3 -76 123 -168 268 -93 145 -230 361 -305 480 l-137 217
0 344 c0 353 1 366 40 380 28 10 1373 7 1490 -3z"/>
<path d="M2251 3674 c12 -20 140 -224 284 -453 l263 -416 47 -3 c58 -4 186 28
268 67 231 111 320 366 207 597 -56 114 -171 191 -335 225 -77 16 -137 19
-423 19 l-334 0 23 -36z"/>
</g>
</svg>
